<?xml version="1.0" encoding="utf-8"?><svg viewBox="0 0 195 167" xmlns="http://www.w3.org/2000/svg" xmlns:xlink="http://www.w3.org/1999/xlink"><style>:root>svg{display:none}:root>svg:target{display:block}</style><svg fill="none" viewBox="0 0 15 8" id="btn-arrow" xmlns="http://www.w3.org/2000/svg"><path d="M14.354 4.354a.5.5 0 0 0 0-.708L11.172.464a.5.5 0 1 0-.708.708L13.293 4l-2.829 2.828a.5.5 0 1 0 .708.708l3.182-3.182ZM0 4.5h14v-1H0v1Z" fill="#fff"/></svg><svg fill="none" viewBox="0 0 15 28" id="fb_logo" xmlns="http://www.w3.org/2000/svg"><path d="M13.371 9.724a.2.2 0 0 0-.199-.22H9.35V6.85c0-.996.66-1.228 1.125-1.228h2.656c.11 0 .199-.09.199-.2V1.44a.2.2 0 0 0-.2-.2l-3.732-.014c-4.364 0-5.357 3.267-5.357 5.358v2.92H1.715a.2.2 0 0 0-.2.2v4.113c0 .11.09.2.2.2H4.04v12.575c0 .11.09.198.2.198h4.909c.11 0 .2-.087.2-.198V14.017h3.402a.2.2 0 0 0 .199-.18l.421-4.113Z" stroke="#fff" stroke-width="2"/></svg><svg fill="none" viewBox="0 0 15 28" id="fb_logo_color" xmlns="http://www.w3.org/2000/svg"><path d="M13.371 9.724a.2.2 0 0 0-.199-.22H9.35V6.85c0-.996.66-1.229 1.125-1.229h2.656c.11 0 .199-.09.199-.2v-3.98a.2.2 0 0 0-.2-.2l-3.732-.015c-4.364 0-5.357 3.267-5.357 5.357v2.92H1.715a.2.2 0 0 0-.2.2v4.114c0 .11.09.2.2.2H4.04v12.575c0 .11.09.198.2.198h4.909c.11 0 .2-.088.2-.198V14.017h3.402a.2.2 0 0 0 .199-.18l.421-4.113Z" stroke="#17C1BC" stroke-width="2"/></svg><svg fill="none" viewBox="0 0 28 28" id="inst_logo" xmlns="http://www.w3.org/2000/svg"><path d="M13.997.347c-3.708 0-4.173.015-5.63.082-1.452.066-2.445.297-3.313.634a6.693 6.693 0 0 0-2.419 1.575 6.693 6.693 0 0 0-1.574 2.419C.722 5.925.492 6.917.425 8.37.359 9.827.344 10.292.344 14c0 3.708.015 4.173.082 5.63.066 1.452.297 2.445.634 3.313.35.898.816 1.66 1.575 2.419a6.693 6.693 0 0 0 2.419 1.575c.868.337 1.86.568 3.314.634 1.456.066 1.921.082 5.63.082 3.707 0 4.172-.015 5.628-.082 1.453-.066 2.446-.297 3.314-.635a6.694 6.694 0 0 0 2.419-1.574 6.694 6.694 0 0 0 1.575-2.419c.337-.868.568-1.86.634-3.314.067-1.456.082-1.921.082-5.629 0-3.708-.015-4.173-.082-5.63-.066-1.452-.297-2.445-.634-3.313a6.693 6.693 0 0 0-1.575-2.419 6.694 6.694 0 0 0-2.419-1.575C22.073.726 21.08.495 19.627.43 18.17.362 17.705.347 13.997.347Zm0 2.46c3.646 0 4.078.014 5.517.08 1.331.06 2.054.283 2.535.47a4.23 4.23 0 0 1 1.57 1.02 4.23 4.23 0 0 1 1.022 1.57c.187.482.409 1.205.47 2.536.065 1.44.08 1.871.08 5.517 0 3.645-.015 4.077-.08 5.517-.061 1.331-.284 2.054-.47 2.535a4.23 4.23 0 0 1-1.022 1.57 4.23 4.23 0 0 1-1.57 1.021c-.48.188-1.204.41-2.535.47-1.44.066-1.871.08-5.517.08-3.646 0-4.078-.014-5.517-.08-1.331-.06-2.054-.282-2.535-.47a4.232 4.232 0 0 1-1.57-1.02 4.23 4.23 0 0 1-1.021-1.57c-.187-.482-.41-1.205-.47-2.536-.066-1.44-.08-1.872-.08-5.517 0-3.646.014-4.077.08-5.517.06-1.331.283-2.054.47-2.535a4.23 4.23 0 0 1 1.02-1.57 4.23 4.23 0 0 1 1.57-1.022c.482-.186 1.205-.409 2.536-.47 1.44-.065 1.871-.08 5.517-.08Z" fill="#fff"/><path d="M13.995 18.551a4.551 4.551 0 1 1 0-9.102 4.551 4.551 0 0 1 0 9.102Zm0-11.562a7.011 7.011 0 1 0 0 14.022 7.011 7.011 0 0 0 0-14.022ZM22.925 6.712a1.638 1.638 0 1 1-3.276 0 1.638 1.638 0 0 1 3.276 0Z" fill="#fff"/></svg><svg fill="none" viewBox="0 0 28 28" id="inst_logo_color" xmlns="http://www.w3.org/2000/svg"><path d="M13.997.347c-3.708 0-4.173.015-5.63.082-1.452.066-2.445.297-3.313.634a6.693 6.693 0 0 0-2.419 1.575 6.693 6.693 0 0 0-1.574 2.419C.722 5.925.492 6.917.425 8.37.359 9.827.344 10.292.344 14c0 3.708.015 4.173.082 5.63.066 1.452.297 2.445.634 3.313.35.898.816 1.66 1.575 2.419a6.693 6.693 0 0 0 2.419 1.575c.868.337 1.86.568 3.314.634 1.456.066 1.921.082 5.63.082 3.707 0 4.172-.015 5.628-.082 1.453-.066 2.446-.297 3.314-.635a6.694 6.694 0 0 0 2.419-1.574 6.694 6.694 0 0 0 1.575-2.419c.337-.868.568-1.86.634-3.314.067-1.456.082-1.921.082-5.629 0-3.708-.015-4.173-.082-5.63-.066-1.452-.297-2.445-.634-3.313a6.693 6.693 0 0 0-1.575-2.419 6.694 6.694 0 0 0-2.419-1.575C22.073.726 21.08.495 19.627.43 18.17.362 17.705.347 13.997.347Zm0 2.46c3.646 0 4.078.014 5.517.08 1.331.06 2.054.283 2.535.47a4.23 4.23 0 0 1 1.57 1.02 4.23 4.23 0 0 1 1.022 1.57c.187.482.409 1.205.47 2.536.065 1.44.08 1.871.08 5.517 0 3.645-.015 4.077-.08 5.517-.061 1.331-.284 2.054-.47 2.535a4.23 4.23 0 0 1-1.022 1.57 4.23 4.23 0 0 1-1.57 1.021c-.48.188-1.204.41-2.535.47-1.44.066-1.871.08-5.517.08-3.646 0-4.078-.014-5.517-.08-1.331-.06-2.054-.282-2.535-.47a4.232 4.232 0 0 1-1.57-1.02 4.23 4.23 0 0 1-1.021-1.57c-.187-.482-.41-1.205-.47-2.536-.066-1.44-.08-1.872-.08-5.517 0-3.646.014-4.077.08-5.517.06-1.331.283-2.054.47-2.535a4.23 4.23 0 0 1 1.02-1.57 4.23 4.23 0 0 1 1.57-1.022c.482-.186 1.205-.409 2.536-.47 1.44-.065 1.871-.08 5.517-.08Z" fill="#E59B06"/><path d="M13.995 18.551a4.551 4.551 0 1 1 0-9.102 4.551 4.551 0 0 1 0 9.102Zm0-11.562a7.011 7.011 0 1 0 0 14.022 7.011 7.011 0 0 0 0-14.022ZM22.925 6.712a1.638 1.638 0 1 1-3.276 0 1.638 1.638 0 0 1 3.276 0Z" fill="#E59B06"/></svg><svg fill="none" viewBox="0 0 19 19" id="mail_logo" xmlns="http://www.w3.org/2000/svg"><g clip-path="url(#fa)" fill="#282828"><path d="M17.327 4.725a.445.445 0 0 0-.623-.09L9.52 9.994a.149.149 0 0 1-.178 0L2.3 4.61a.445.445 0 0 0-.54.708l5.536 4.235-5.476 4.127a.448.448 0 1 0 .536.718l5.675-4.284.769.594a1.04 1.04 0 0 0 1.251.01l.808-.604 5.741 4.284a.445.445 0 1 0 .533-.714l-5.53-4.132 5.633-4.208a.445.445 0 0 0 .09-.62Z"/><path d="M16.773 2.82H2.227A2.227 2.227 0 0 0 0 5.047v8.906a2.226 2.226 0 0 0 2.227 2.227h14.546A2.227 2.227 0 0 0 19 13.953V5.047a2.227 2.227 0 0 0-2.227-2.227Zm1.336 11.133a1.336 1.336 0 0 1-1.336 1.336H2.227A1.336 1.336 0 0 1 .89 13.953V5.047A1.336 1.336 0 0 1 2.227 3.71h14.546a1.336 1.336 0 0 1 1.336 1.336v8.906Z" stroke="#282828" stroke-width=".5"/></g><defs><clipPath id="fa"><path fill="#fff" d="M0 0h19v19H0z"/></clipPath></defs></svg><svg fill="none" viewBox="0 0 40 40" id="menu-burger" xmlns="http://www.w3.org/2000/svg"><rect y="7" width="40" height="5" rx="2.5" fill="#fff"/><rect y="17" width="40" height="5" rx="2.5" fill="#fff"/><rect y="27" width="40" height="5" rx="2.5" fill="#fff"/></svg><svg fill="none" viewBox="0 0 195 167" id="quotes" xmlns="http://www.w3.org/2000/svg"><path opacity=".4" d="M124.998 107.739c-4.678-1.4-9.607-5.933-14.788-13.6-4.978-7.776-5.927-16.81-2.847-27.1 3.081-10.292 9.724-18.582 19.931-24.871 10.208-6.29 20.613-7.847 31.216-4.673 10.603 3.173 18.424 8.827 23.465 16.962 5.041 8.134 5.974 17.503 2.801 28.106-3.127 10.447-9.248 20.678-18.361 30.692-8.958 10.061-19.67 18.323-32.138 24.785-12.312 6.508-24.259 9.813-35.842 9.914-4.415-4.55-5.993-9.779-4.734-15.688 7.123-2.795 13.769-6.837 19.94-12.126 6.372-5.398 10.158-9.532 11.357-12.401ZM41.032 82.607c-4.522-1.353-9.374-5.863-14.554-13.53-4.978-7.776-5.927-16.81-2.847-27.1 3.127-10.448 9.77-18.738 19.931-24.871 10.208-6.29 20.613-7.847 31.216-4.673 10.603 3.173 18.346 8.804 23.231 16.892 5.041 8.134 5.974 17.503 2.801 28.106-3.127 10.447-9.248 20.678-18.361 30.692-8.958 10.061-19.67 18.323-32.138 24.785-12.312 6.508-24.26 9.813-35.842 9.914-4.368-4.705-5.946-9.935-4.734-15.688 7.279-2.748 14.003-6.767 20.173-12.056 6.17-5.288 9.878-9.446 11.123-12.47Z" fill="#FFC700"/></svg><svg fill="none" viewBox="0 0 20 18" id="telegram_logo" xmlns="http://www.w3.org/2000/svg"><path d="m18.664 3.023-2.63 12.403c-.198.875-.716 1.093-1.45.68l-4.008-2.952-1.934 1.86c-.214.213-.393.393-.805.393l.288-4.082 7.427-6.71c.323-.289-.07-.448-.502-.16l-9.182 5.78L1.916 9c-.86-.269-.876-.86.179-1.272l15.46-5.957c.716-.268 1.343.16 1.11 1.253Z" stroke="#282828" stroke-width="1.4" stroke-miterlimit="10" stroke-linecap="round" stroke-linejoin="round"/></svg><svg fill="none" viewBox="0 0 27 18" id="vk_logo" xmlns="http://www.w3.org/2000/svg"><path d="M25.89 14a30.068 30.068 0 0 0-4.13-5.15.2.2 0 0 1 0-.25 40.658 40.658 0 0 0 3.55-5.81 1.9 1.9 0 0 0-.08-1.86A1.81 1.81 0 0 0 23.65 0h-3a2 2 0 0 0-1.79 1.19 34.99 34.99 0 0 1-3.12 5.51V1.8a1.788 1.788 0 0 0-1.8-1.8H9.56a1.4 1.4 0 0 0-1.12 2.21l.4.56c.215.308.33.675.33 1.05v3.84a26.11 26.11 0 0 1-3.12-6.31A2 2 0 0 0 4.16 0H1.71A1.73 1.73 0 0 0 .05 2.14c1.35 5.73 4.18 10.48 7.77 13a1 1 0 0 0 1.16-1.63C5.84 11.31 3.34 7.12 2.07 2h2.1a26.12 26.12 0 0 0 4.1 7.75 1.6 1.6 0 0 0 1.8.52 1.64 1.64 0 0 0 1.1-1.57V3.82A3.779 3.779 0 0 0 10.71 2h3v5.43A1.77 1.77 0 0 0 15 9.15a1.74 1.74 0 0 0 2-.69A36.869 36.869 0 0 0 20.62 2h2.8a39.8 39.8 0 0 1-3.29 5.37 2.17 2.17 0 0 0 .2 2.83 32.064 32.064 0 0 1 3.92 4.8H20.9a14 14 0 0 0-4.07-4.31 1.64 1.64 0 0 0-1.73-.13 1.69 1.69 0 0 0-.92 1.52v2.38a.53.53 0 0 1-.5.55h-.86a1 1 0 0 0 0 2h.86a2.52 2.52 0 0 0 2.5-2.55v-1.77a11.778 11.778 0 0 1 3 3.32 2.001 2.001 0 0 0 1.69 1h3.38a1.92 1.92 0 0 0 1.69-1 2 2 0 0 0-.05-2.01Z" fill="#fff"/></svg><svg fill="none" viewBox="0 0 32 21" id="vk_logo_color" xmlns="http://www.w3.org/2000/svg"><path d="M31.307 17.125a35.71 35.71 0 0 0-4.905-6.116.238.238 0 0 1 0-.296 48.271 48.271 0 0 0 4.216-6.9 2.256 2.256 0 0 0-.095-2.209A2.149 2.149 0 0 0 28.647.5h-3.563a2.375 2.375 0 0 0-2.125 1.413 41.57 41.57 0 0 1-3.705 6.543V2.638A2.128 2.128 0 0 0 17.116.5h-5.201a1.662 1.662 0 0 0-1.33 2.624l.475.665c.255.366.391.801.392 1.247v4.56a31.005 31.005 0 0 1-3.705-7.493A2.375 2.375 0 0 0 5.502.5H2.593A2.054 2.054 0 0 0 .622 3.041C2.225 9.846 5.586 15.486 9.849 18.48a1.188 1.188 0 0 0 1.377-1.936C7.497 13.931 4.53 8.955 3.021 2.875h2.493a31.019 31.019 0 0 0 4.869 9.203 1.9 1.9 0 0 0 2.138.618 1.947 1.947 0 0 0 1.306-1.865V5.036a4.488 4.488 0 0 0-.546-2.161h3.562v6.448a2.102 2.102 0 0 0 1.532 2.043 2.067 2.067 0 0 0 2.375-.82 43.789 43.789 0 0 0 4.299-7.671h3.325a47.283 47.283 0 0 1-3.907 6.377 2.577 2.577 0 0 0 .237 3.36 38.103 38.103 0 0 1 4.655 5.7h-3.978a16.627 16.627 0 0 0-4.833-5.118 1.948 1.948 0 0 0-2.054-.154 2.006 2.006 0 0 0-1.093 1.805v2.826a.63.63 0 0 1-.594.653h-1.02a1.187 1.187 0 1 0 0 2.375h1.02a2.993 2.993 0 0 0 2.97-3.028V15.57a13.99 13.99 0 0 1 3.562 3.943 2.375 2.375 0 0 0 2.007 1.187h4.013a2.28 2.28 0 0 0 2.007-1.187 2.374 2.374 0 0 0-.06-2.387Z" fill="#BC0000"/><path d="M31.307 17.125a35.71 35.71 0 0 0-4.905-6.116.238.238 0 0 1 0-.296 48.271 48.271 0 0 0 4.216-6.9 2.256 2.256 0 0 0-.095-2.209A2.149 2.149 0 0 0 28.647.5h-3.563a2.375 2.375 0 0 0-2.125 1.413 41.57 41.57 0 0 1-3.705 6.543V2.638A2.128 2.128 0 0 0 17.116.5h-5.201a1.662 1.662 0 0 0-1.33 2.624l.475.665c.255.366.391.801.392 1.247v4.56a31.005 31.005 0 0 1-3.705-7.493A2.375 2.375 0 0 0 5.502.5H2.593A2.054 2.054 0 0 0 .622 3.041C2.225 9.846 5.586 15.486 9.849 18.48a1.188 1.188 0 0 0 1.377-1.936C7.497 13.931 4.53 8.955 3.021 2.875h2.493a31.019 31.019 0 0 0 4.869 9.203 1.9 1.9 0 0 0 2.138.618 1.947 1.947 0 0 0 1.306-1.865V5.036a4.488 4.488 0 0 0-.546-2.161h3.562v6.448a2.102 2.102 0 0 0 1.532 2.043 2.067 2.067 0 0 0 2.375-.82 43.789 43.789 0 0 0 4.299-7.671h3.325a47.283 47.283 0 0 1-3.907 6.377 2.577 2.577 0 0 0 .237 3.36 38.103 38.103 0 0 1 4.655 5.7h-3.978a16.627 16.627 0 0 0-4.833-5.118 1.948 1.948 0 0 0-2.054-.154 2.006 2.006 0 0 0-1.093 1.805v2.826a.63.63 0 0 1-.594.653h-1.02a1.187 1.187 0 1 0 0 2.375h1.02a2.993 2.993 0 0 0 2.97-3.028V15.57a13.99 13.99 0 0 1 3.562 3.943 2.375 2.375 0 0 0 2.007 1.187h4.013a2.28 2.28 0 0 0 2.007-1.187 2.374 2.374 0 0 0-.06-2.387Z" fill="#000" fill-opacity=".2"/></svg><svg fill="none" viewBox="0 0 19 19" id="whatsapp_logo" xmlns="http://www.w3.org/2000/svg"><path d="M18.777 9.377c-.003 1.607-.352 3.025-1.057 4.342a8.875 8.875 0 0 1-2.735 3.095 8.84 8.84 0 0 1-3.336 1.459 9.126 9.126 0 0 1-4.02-.07 8.297 8.297 0 0 1-2.014-.776.363.363 0 0 0-.316-.026c-1.399.449-2.798.894-4.197 1.34-.16.051-.315.1-.475.159-.111.04-.119 0-.089-.093.163-.479.323-.957.486-1.44.35-1.043.698-2.085 1.054-3.125.048-.137-.022-.226-.078-.322a8.654 8.654 0 0 1-.942-2.424 8.857 8.857 0 0 1 .434-5.392 8.814 8.814 0 0 1 1.737-2.716 8.953 8.953 0 0 1 3.373-2.282A8.795 8.795 0 0 1 10.36.53c1.77.107 3.38.694 4.794 1.762 1.83 1.38 2.98 3.195 3.44 5.448.123.575.168 1.158.182 1.636ZM9.741 2.034a6.412 6.412 0 0 0-1.154.085c-.16.022-.315.056-.471.096-2.412.613-4.145 2.053-5.166 4.32-.59 1.31-.75 2.694-.527 4.112a7.297 7.297 0 0 0 1.24 3.083c.07.104.081.193.04.308-.274.806-.541 1.615-.812 2.424-.015.044-.06.096-.019.137.041.044.093-.004.138-.019.812-.26 1.625-.515 2.43-.786.186-.063.32-.034.479.063 1.822 1.095 3.77 1.384 5.822.838 1.559-.412 2.843-1.261 3.86-2.516a7.285 7.285 0 0 0 1.644-4.152 7.322 7.322 0 0 0-.575-3.455 7.405 7.405 0 0 0-2.787-3.332A7.19 7.19 0 0 0 9.74 2.034Z" fill="#282828"/><path d="M5.31 7.333c.015-.835.342-1.522.98-2.056a.769.769 0 0 1 .642-.175c.104.015.212.03.312.019.252-.019.397.122.475.33.237.624.467 1.25.701 1.874a.399.399 0 0 1-.022.338c-.145.3-.375.534-.605.768-.2.204-.212.271-.074.52.664 1.202 1.58 2.137 2.85 2.705.063.026.118.07.178.096.16.078.304.071.438-.066.26-.264.5-.546.734-.835.182-.227.268-.26.524-.145.623.29 1.217.627 1.822.954.2.107.223.256.193.527-.123 1.102-.965 1.603-1.926 1.762a1.976 1.976 0 0 1-.932-.074c-.89-.282-1.766-.608-2.553-1.12a8.38 8.38 0 0 1-1.918-1.756 12.757 12.757 0 0 1-1.414-2.126c-.223-.434-.405-1.11-.405-1.54Z" fill="#282828"/></svg></svg>