<?xml version="1.0" standalone="no"?>
<!DOCTYPE svg PUBLIC "-//W3C//DTD SVG 20010904//EN"
 "http://www.w3.org/TR/2001/REC-SVG-20010904/DTD/svg10.dtd">
<svg version="1.0" xmlns="http://www.w3.org/2000/svg"
 width="114.000000pt" height="114.000000pt" viewBox="0 0 114.000000 114.000000"
 preserveAspectRatio="xMidYMid meet">
<metadata>
Created by potrace 1.14, written by Peter Selinger 2001-2017
</metadata>
<g transform="translate(0.000000,114.000000) scale(0.100000,-0.100000)"
fill="#000000" stroke="none">
<path d="M543 1115 c-36 -15 -72 -61 -103 -130 -35 -79 -34 -201 4 -370 8 -36
27 -80 43 -97 14 -16 14 -18 -1 -24 -14 -5 -13 -10 9 -32 23 -23 24 -26 8 -38
-17 -12 -16 -13 4 -14 25 0 33 -10 49 -60 12 -36 14 -8 18 302 0 47 4 84 9 81
4 -3 6 -86 4 -185 l-4 -180 35 36 c34 34 35 36 18 54 -16 19 -16 21 11 42 l28
22 7 -46 c3 -25 9 -49 12 -55 7 -10 -58 -100 -83 -116 -23 -13 -41 -15 -41 -4
0 6 -6 7 -12 2 -20 -12 -58 -15 -58 -4 0 5 -6 16 -12 23 -46 49 -59 79 -51
116 11 53 6 85 -28 192 -44 136 -43 250 1 393 11 34 20 63 20 65 0 12 -104
-55 -137 -88 -70 -70 -88 -118 -88 -235 1 -91 4 -106 32 -165 33 -69 88 -135
138 -166 l30 -19 -27 36 c-33 44 -74 141 -82 194 l-6 40 13 -40 c26 -74 94
-209 140 -278 35 -51 46 -76 45 -102 -1 -27 -6 -35 -20 -35 -14 0 -18 -8 -17
-37 1 -67 3 -68 114 -68 55 0 102 3 105 7 3 4 5 29 5 55 0 40 -3 48 -19 48
-12 0 -20 8 -22 22 -2 12 -5 26 -6 32 -5 17 87 128 125 150 65 38 145 156 162
239 31 151 -8 268 -116 353 -67 52 -122 78 -104 49 24 -38 47 -156 50 -250 3
-98 1 -112 -31 -200 -35 -101 -41 -105 -23 -19 14 72 22 158 21 250 0 57 -6
87 -23 125 -55 119 -92 152 -146 129z m44 -345 c1 -11 -2 -20 -5 -20 -4 0 -8
9 -9 20 -1 11 2 20 5 20 4 0 8 -9 9 -20z m234 -156 c-14 -55 -50 -130 -81
-164 -14 -17 -8 2 19 55 22 44 46 99 53 122 17 56 24 46 9 -13z"/>
<path d="M499 49 c-7 -4 -11 -11 -7 -14 10 -11 120 -7 131 4 13 13 11 13 -59
16 -28 2 -57 -1 -65 -6z"/>
</g>
</svg>
